<?xml version="1.0" encoding="UTF-8"?>
<svg xmlns="http://www.w3.org/2000/svg" xmlns:xlink="http://www.w3.org/1999/xlink" width="300px" height="55px" viewBox="0 0 298 55" version="1.1">
<g id="surface1">
<path style=" stroke:none;fill-rule:nonzero;fill:rgb(0%,0%,0%);fill-opacity:1;" d="M 82.007812 32.300781 C 81.777344 31.695312 81.664062 30.863281 81.664062 29.796875 C 81.664062 28.730469 82.027344 25.570312 82.753906 20.316406 C 83.480469 15.082031 83.84375 10.875 83.84375 7.695312 C 83.84375 6.949219 83.792969 5.929688 83.6875 4.632812 C 85.566406 4.738281 86.746094 5.183594 87.222656 5.964844 C 87.472656 6.425781 87.632812 6.859375 87.703125 7.269531 C 87.773438 7.675781 87.808594 8.324219 87.808594 9.214844 C 87.808594 10.082031 87.410156 13.394531 86.613281 19.144531 C 85.796875 24.898438 85.378906 28.996094 85.363281 31.449219 C 85.484375 31.410156 85.707031 31.394531 86.027344 31.394531 C 91.402344 31.394531 95.402344 31.023438 98.027344 30.277344 C 97.851562 31.714844 97.363281 32.832031 96.5625 33.632812 C 95.746094 34.429688 94.738281 34.828125 93.53125 34.828125 C 93.175781 34.828125 92.101562 34.75 90.3125 34.589844 C 88.5 34.429688 86.753906 34.351562 85.070312 34.351562 C 83.382812 34.351562 81.691406 34.511719 79.988281 34.828125 C 80.324219 33.730469 81 32.886719 82.007812 32.300781 Z M 106.515625 19.945312 C 105.804688 21.1875 105.257812 22.464844 104.867188 23.777344 C 104.476562 25.074219 104.28125 26.324219 104.28125 27.535156 C 104.28125 28.722656 104.546875 29.734375 105.078125 30.570312 C 105.609375 31.402344 106.375 31.820312 107.367188 31.820312 C 108.769531 31.820312 110.070312 31.058594 111.277344 29.53125 C 112.503906 27.984375 113.441406 26.132812 114.097656 23.964844 C 114.753906 21.78125 115.082031 19.765625 115.082031 17.921875 C 115.082031 16.074219 115.011719 14.554688 114.871094 13.367188 C 115.457031 13.3125 115.828125 13.289062 115.988281 13.289062 C 118.097656 13.289062 119.152344 14.371094 119.152344 16.535156 C 119.152344 16.996094 118.851562 18.914062 118.25 22.289062 C 117.664062 25.660156 117.371094 28.359375 117.371094 30.382812 C 117.371094 32.40625 117.753906 34.199219 118.515625 35.761719 C 116.953125 35.441406 115.820312 34.75 115.109375 33.683594 C 114.398438 32.636719 114.046875 31.121094 114.046875 29.132812 C 114.046875 28.777344 114.097656 28.101562 114.207031 27.105469 C 113.53125 29.46875 112.351562 31.367188 110.667969 32.804688 C 108.964844 34.261719 107.304688 34.988281 105.691406 34.988281 C 104.058594 34.988281 102.746094 34.367188 101.753906 33.125 C 100.757812 31.898438 100.261719 30.203125 100.261719 28.039062 C 100.261719 25.855469 100.671875 23.726562 101.488281 21.648438 C 102.285156 19.570312 103.5 17.777344 105.132812 16.269531 C 106.746094 14.742188 108.5625 13.980469 110.585938 13.980469 C 111.457031 13.980469 112.414062 14.15625 113.460938 14.511719 C 111.988281 14.886719 110.640625 15.570312 109.414062 16.5625 C 108.210938 17.558594 107.242188 18.683594 106.515625 19.945312 Z M 144.007812 8.628906 L 144.03125 9.082031 C 144.03125 10.019531 143.679688 13.109375 142.96875 18.347656 C 142.257812 23.566406 141.902344 27.933594 141.902344 31.449219 C 141.902344 33.007812 141.984375 34.226562 142.144531 35.09375 C 141.539062 35.148438 141.210938 35.175781 141.160156 35.175781 C 140.042969 35.175781 139.207031 34.917969 138.65625 34.402344 C 138.125 33.886719 137.859375 33.054688 137.859375 31.898438 C 137.859375 30.746094 138.277344 27.214844 139.109375 21.300781 C 139.925781 15.410156 140.335938 11.203125 140.335938 8.679688 C 140.335938 6.160156 140.164062 4.507812 139.828125 3.726562 C 140.628906 3.835938 141.363281 4.144531 142.039062 4.660156 C 142.730469 5.15625 143.242188 5.832031 143.582031 6.683594 C 145.480469 5.671875 147.589844 5.164062 149.914062 5.164062 C 152.21875 5.164062 154.039062 5.875 155.367188 7.296875 C 156.699219 8.734375 157.363281 10.492188 157.363281 12.570312 C 157.363281 15.230469 156.398438 17.628906 154.464844 19.757812 C 152.53125 21.871094 149.921875 22.925781 146.640625 22.925781 C 145.894531 22.925781 145.210938 22.882812 144.589844 22.792969 L 144.484375 21.59375 C 146.152344 21.59375 147.605469 21.347656 148.847656 20.851562 C 150.089844 20.351562 151.03125 19.695312 151.667969 18.878906 C 152.929688 17.28125 153.558594 15.417969 153.558594 13.289062 C 153.558594 11.742188 153.070312 10.457031 152.09375 9.425781 C 151.121094 8.398438 149.699219 7.882812 147.835938 7.882812 C 146.71875 7.882812 145.441406 8.128906 144.007812 8.628906 Z M 165.613281 19.945312 C 164.882812 21.1875 164.324219 22.464844 163.9375 23.777344 C 163.5625 25.074219 163.375 26.324219 163.375 27.535156 C 163.375 28.722656 163.644531 29.734375 164.175781 30.570312 C 164.707031 31.402344 165.46875 31.820312 166.464844 31.820312 C 167.847656 31.820312 169.152344 31.058594 170.375 29.53125 C 171.582031 27.984375 172.511719 26.132812 173.167969 23.964844 C 173.84375 21.78125 174.179688 19.765625 174.179688 17.921875 C 174.179688 16.074219 174.101562 14.554688 173.941406 13.367188 C 174.542969 13.3125 174.914062 13.289062 175.058594 13.289062 C 177.167969 13.289062 178.222656 14.371094 178.222656 16.535156 C 178.222656 16.996094 177.929688 18.914062 177.347656 22.289062 C 176.742188 25.660156 176.441406 28.359375 176.441406 30.382812 C 176.441406 32.40625 176.824219 34.199219 177.585938 35.761719 C 176.023438 35.441406 174.890625 34.75 174.179688 33.683594 C 173.46875 32.636719 173.117188 31.121094 173.117188 29.132812 C 173.117188 28.777344 173.167969 28.101562 173.273438 27.105469 C 172.601562 29.46875 171.421875 31.367188 169.734375 32.804688 C 168.050781 34.261719 166.390625 34.988281 164.761719 34.988281 C 163.128906 34.988281 161.816406 34.367188 160.824219 33.125 C 159.828125 31.898438 159.332031 30.203125 159.332031 28.039062 C 159.332031 25.855469 159.742188 23.726562 160.554688 21.648438 C 161.355469 19.570312 162.570312 17.777344 164.203125 16.269531 C 165.832031 14.742188 167.652344 13.980469 169.65625 13.980469 C 170.527344 13.980469 171.484375 14.15625 172.53125 14.511719 C 171.058594 14.886719 169.71875 15.570312 168.511719 16.5625 C 167.289062 17.558594 166.320312 18.683594 165.613281 19.945312 Z M 201.238281 18.320312 C 201.238281 19.457031 201 21.472656 200.523438 24.363281 C 200.042969 27.257812 199.804688 29.371094 199.804688 30.703125 C 199.804688 32.015625 199.964844 32.964844 200.28125 33.550781 C 200.601562 34.136719 201.152344 34.632812 201.933594 35.042969 C 201.59375 35.078125 201.132812 35.09375 200.546875 35.09375 C 198.863281 35.09375 197.664062 34.777344 196.957031 34.136719 C 196.246094 33.496094 195.890625 32.363281 195.890625 30.730469 C 195.890625 29.804688 196.140625 27.949219 196.636719 25.164062 C 197.132812 22.359375 197.382812 20.300781 197.382812 18.984375 C 197.382812 17.351562 196.886719 16.535156 195.890625 16.535156 C 194.296875 16.535156 192.644531 17.9375 190.941406 20.742188 C 189.238281 23.546875 188.386719 26.929688 188.386719 30.886719 C 188.386719 32.449219 188.46875 33.667969 188.628906 34.535156 C 187.972656 34.589844 187.582031 34.617188 187.457031 34.617188 C 185.273438 34.617188 184.183594 33.542969 184.183594 31.394531 C 184.183594 30.898438 184.449219 28.988281 184.984375 25.667969 C 185.496094 22.332031 185.753906 19.679688 185.753906 17.707031 C 185.753906 15.71875 185.542969 13.898438 185.117188 12.25 C 186.589844 12.816406 187.617188 13.625 188.203125 14.671875 C 188.789062 15.738281 189.082031 16.945312 189.082031 18.292969 C 189.082031 19.640625 188.929688 21.214844 188.628906 23.007812 C 189.445312 20.203125 190.730469 17.839844 192.484375 15.921875 C 194.222656 13.988281 195.855469 13.019531 197.382812 13.019531 C 199.953125 13.019531 201.238281 14.789062 201.238281 18.320312 Z M 219.09375 14.113281 C 219.09375 15.140625 218.898438 15.863281 218.507812 16.269531 C 218.101562 16.660156 217.515625 16.855469 216.753906 16.855469 L 214.066406 16.855469 C 213.957031 17.511719 213.703125 19.058594 213.292969 21.488281 C 212.441406 26.105469 212.015625 29.59375 212.015625 31.953125 C 212.015625 34.316406 212.195312 35.886719 212.546875 36.667969 C 211.128906 36.132812 210.117188 35.34375 209.515625 34.296875 C 208.929688 33.230469 208.636719 31.945312 208.636719 30.4375 C 208.636719 28.910156 208.726562 27.472656 208.902344 26.121094 C 209.097656 24.773438 209.363281 23.191406 209.703125 21.382812 C 210.054688 19.554688 210.304688 18.097656 210.445312 17.015625 C 209.027344 17.210938 207.636719 17.609375 206.269531 18.214844 C 206.234375 17.804688 206.214844 17.441406 206.214844 17.121094 C 206.214844 15.933594 206.605469 15.132812 207.386719 14.726562 C 208.183594 14.316406 209.328125 14.113281 210.820312 14.113281 C 210.996094 12.265625 211.085938 10.890625 211.085938 9.984375 C 211.085938 9.082031 211.078125 8.351562 211.058594 7.800781 C 211.058594 7.25 211.058594 6.84375 211.058594 6.578125 C 212.195312 6.753906 213.070312 7.261719 213.691406 8.09375 C 214.3125 8.910156 214.625 10.046875 214.625 11.503906 C 214.625 12.25 214.5625 13.152344 214.4375 14.21875 C 216.601562 14.21875 218.128906 13.855469 219.015625 13.128906 C 219.066406 13.484375 219.09375 13.8125 219.09375 14.113281 Z M 226.09375 23.007812 C 226.90625 20.203125 228.167969 17.839844 229.871094 15.921875 C 231.574219 13.988281 233.171875 13.019531 234.660156 13.019531 C 236.148438 13.019531 237.207031 13.472656 237.828125 14.378906 C 238.445312 15.285156 238.757812 16.519531 238.757812 18.082031 C 238.757812 19.625 238.519531 21.800781 238.039062 24.605469 C 237.558594 27.425781 237.320312 29.476562 237.320312 30.753906 C 237.320312 32.035156 237.480469 32.964844 237.800781 33.550781 C 238.117188 34.136719 238.660156 34.632812 239.421875 35.042969 C 239.105469 35.078125 238.652344 35.09375 238.066406 35.09375 C 236.46875 35.09375 235.289062 34.765625 234.527344 34.109375 C 233.78125 33.453125 233.410156 32.328125 233.410156 30.730469 C 233.410156 29.804688 233.65625 27.949219 234.15625 25.164062 C 234.652344 22.359375 234.898438 20.300781 234.898438 18.984375 C 234.898438 17.351562 234.324219 16.535156 233.171875 16.535156 C 232.496094 16.535156 231.75 16.890625 230.933594 17.601562 C 230.117188 18.292969 229.328125 19.242188 228.566406 20.449219 C 227.820312 21.65625 227.191406 23.191406 226.675781 25.058594 C 226.164062 26.902344 225.90625 28.722656 225.90625 30.515625 C 225.90625 32.328125 225.984375 33.667969 226.144531 34.535156 C 225.542969 34.589844 225.207031 34.617188 225.132812 34.617188 C 223.964844 34.617188 223.101562 34.367188 222.554688 33.871094 C 221.984375 33.375 221.703125 32.59375 221.703125 31.527344 C 221.703125 30.480469 221.921875 28.449219 222.367188 25.429688 C 223.679688 16.179688 224.335938 9.160156 224.335938 4.367188 C 224.335938 2.203125 224.195312 0.746094 223.910156 0 C 225.347656 0.53125 226.359375 1.304688 226.945312 2.316406 C 227.527344 3.347656 227.820312 4.75 227.820312 6.523438 C 227.820312 7.765625 227.574219 10.375 227.078125 14.351562 C 226.597656 18.328125 226.269531 21.214844 226.09375 23.007812 Z M 254.269531 14.964844 C 252.78125 14.964844 251.519531 15.816406 250.492188 17.519531 C 249.445312 19.242188 248.753906 21.257812 248.417969 23.566406 L 249.453125 23.566406 C 250.765625 23.566406 251.910156 23.378906 252.886719 23.007812 C 253.84375 22.632812 254.589844 22.15625 255.121094 21.570312 C 256.113281 20.414062 256.613281 19.117188 256.613281 17.679688 C 256.613281 16.863281 256.417969 16.207031 256.027344 15.710938 C 255.636719 15.214844 255.050781 14.964844 254.269531 14.964844 Z M 259.511719 30.0625 C 258.375 31.925781 257.125 33.230469 255.761719 33.976562 C 254.394531 34.722656 252.808594 35.09375 250.996094 35.09375 C 249.207031 35.09375 247.636719 34.296875 246.289062 32.699219 C 244.941406 31.121094 244.265625 28.882812 244.265625 25.988281 C 244.265625 22.703125 245.152344 19.777344 246.925781 17.203125 C 247.796875 15.960938 248.929688 14.945312 250.332031 14.167969 C 251.734375 13.402344 253.277344 13.019531 254.960938 13.019531 C 258.6875 13.019531 260.550781 14.824219 260.550781 18.425781 C 260.550781 20.59375 259.714844 22.289062 258.046875 23.511719 C 256.363281 24.738281 254.421875 25.351562 252.222656 25.351562 C 250.75 25.351562 249.425781 25.214844 248.257812 24.949219 C 248.238281 25.199219 248.230469 25.582031 248.230469 26.09375 C 248.230469 30.496094 249.535156 32.699219 252.140625 32.699219 C 254.589844 32.699219 256.585938 31.484375 258.128906 29.050781 C 259.050781 29.175781 259.511719 29.511719 259.511719 30.0625 Z M 258.765625 10.226562 C 258.75 10.492188 258.617188 10.75 258.367188 10.996094 C 258.136719 11.226562 257.871094 11.378906 257.570312 11.449219 C 256.683594 10.332031 255.539062 9.230469 254.136719 8.148438 C 252.734375 7.046875 251.308594 6.273438 249.851562 5.832031 C 249.90625 4.535156 250.507812 3.515625 251.664062 2.769531 C 252.976562 3.285156 254.332031 4.3125 255.734375 5.859375 C 257.136719 7.386719 258.144531 8.839844 258.765625 10.226562 Z M 269.757812 22.421875 C 270.644531 19.191406 271.714844 16.8125 272.976562 15.285156 C 274.234375 13.757812 275.40625 12.996094 276.488281 12.996094 C 277.570312 12.996094 278.378906 13.394531 278.910156 14.191406 C 279.460938 15.007812 279.734375 16.039062 279.734375 17.28125 C 279.734375 18.523438 279.414062 19.597656 278.777344 20.503906 C 278.121094 21.410156 277.171875 21.863281 275.929688 21.863281 C 275.539062 21.863281 275.226562 21.835938 274.996094 21.78125 C 275.847656 20.558594 276.273438 19.3125 276.273438 18.054688 C 276.273438 17.167969 275.910156 16.722656 275.183594 16.722656 C 274.617188 16.722656 274.011719 17.050781 273.375 17.707031 C 272.71875 18.382812 272.097656 19.3125 271.511719 20.503906 C 270.910156 21.710938 270.414062 23.265625 270.023438 25.164062 C 269.613281 27.082031 269.410156 29.148438 269.410156 31.367188 C 269.410156 31.617188 269.472656 32.671875 269.597656 34.535156 C 268.957031 34.589844 268.585938 34.617188 268.480469 34.617188 C 266.296875 34.617188 265.207031 33.542969 265.207031 31.394531 C 265.207031 30.898438 265.472656 28.988281 266.003906 25.667969 C 266.519531 22.332031 266.777344 19.679688 266.777344 17.707031 C 266.777344 15.71875 266.5625 13.898438 266.136719 12.25 C 267.609375 12.816406 268.636719 13.625 269.222656 14.671875 C 269.808594 15.738281 270.101562 16.972656 270.101562 18.375 C 270.101562 19.777344 269.988281 21.125 269.757812 22.421875 Z M 291.707031 14.964844 C 290.21875 14.964844 288.949219 15.816406 287.902344 17.519531 C 286.875 19.242188 286.191406 21.257812 285.855469 23.566406 L 286.890625 23.566406 C 288.203125 23.566406 289.347656 23.378906 290.324219 23.007812 C 291.28125 22.632812 292.027344 22.15625 292.558594 21.570312 C 293.550781 20.414062 294.050781 19.117188 294.050781 17.679688 C 294.050781 16.863281 293.855469 16.207031 293.464844 15.710938 C 293.074219 15.214844 292.488281 14.964844 291.707031 14.964844 Z M 296.949219 30.0625 C 295.8125 31.925781 294.5625 33.230469 293.199219 33.976562 C 291.832031 34.722656 290.246094 35.09375 288.433594 35.09375 C 286.644531 35.09375 285.074219 34.296875 283.726562 32.699219 C 282.378906 31.121094 281.703125 28.882812 281.703125 25.988281 C 281.703125 22.703125 282.589844 19.777344 284.363281 17.203125 C 285.234375 15.960938 286.367188 14.945312 287.769531 14.167969 C 289.171875 13.402344 290.714844 13.019531 292.398438 13.019531 C 296.125 13.019531 297.988281 14.824219 297.988281 18.425781 C 297.988281 20.59375 297.152344 22.289062 295.484375 23.511719 C 293.800781 24.738281 291.859375 25.351562 289.660156 25.351562 C 288.1875 25.351562 286.863281 25.214844 285.695312 24.949219 C 285.675781 25.199219 285.667969 25.582031 285.667969 26.09375 C 285.667969 30.496094 286.972656 32.699219 289.578125 32.699219 C 292.027344 32.699219 294.023438 31.484375 295.566406 29.050781 C 296.488281 29.175781 296.949219 29.511719 296.949219 30.0625 Z M 296.949219 30.0625 "/>
<path style=" stroke:none;fill-rule:nonzero;fill:rgb(11.372549%,11.372549%,10.588235%);fill-opacity:1;" d="M 29.847656 25.085938 L 29.847656 25.035156 C 29.285156 24.039062 28.347656 23.316406 27.246094 23.023438 L 27.144531 23.023438 C 26.542969 22.839844 25.921875 22.722656 25.296875 22.675781 C 23.601562 22.449219 21.976562 21.847656 20.542969 20.914062 C 20.292969 20.761719 19.964844 20.835938 19.800781 21.078125 C 19.636719 21.324219 19.6875 21.652344 19.921875 21.832031 C 20.398438 22.136719 20.890625 22.410156 21.402344 22.652344 C 21.402344 22.726562 21.335938 22.800781 21.3125 22.882812 C 20.636719 25.261719 22.007812 27.742188 24.378906 28.4375 C 24.808594 28.558594 25.25 28.621094 25.695312 28.621094 C 27.050781 28.628906 28.328125 28.003906 29.160156 26.933594 C 29.222656 27.675781 29.179688 28.425781 29.027344 29.152344 C 28.96875 29.296875 28.972656 29.457031 29.039062 29.597656 C 29.105469 29.738281 29.226562 29.847656 29.375 29.894531 C 29.433594 29.902344 29.492188 29.902344 29.550781 29.894531 C 29.789062 29.894531 30 29.742188 30.078125 29.515625 C 30.3125 28.523438 30.371094 27.496094 30.246094 26.484375 C 30.207031 25.996094 30.074219 25.519531 29.847656 25.085938 Z M 26.542969 23.984375 C 26.570312 24.109375 26.570312 24.242188 26.542969 24.367188 C 26.398438 24.886719 25.863281 25.1875 25.347656 25.042969 C 24.832031 24.898438 24.53125 24.359375 24.675781 23.84375 C 24.695312 23.800781 24.714844 23.757812 24.742188 23.71875 L 25.183594 23.769531 C 25.648438 23.804688 26.109375 23.878906 26.558594 23.992188 Z M 27.238281 27.128906 C 26.445312 27.535156 25.523438 27.621094 24.667969 27.363281 C 22.871094 26.84375 21.832031 24.96875 22.347656 23.171875 L 22.347656 23.082031 C 22.757812 23.242188 23.175781 23.375 23.601562 23.488281 L 23.601562 23.53125 C 23.363281 24.285156 23.574219 25.105469 24.140625 25.652344 C 24.707031 26.195312 25.53125 26.375 26.273438 26.109375 C 27.015625 25.84375 27.539062 25.179688 27.628906 24.398438 C 28.074219 24.621094 28.449219 24.960938 28.722656 25.375 C 28.46875 26.121094 27.945312 26.746094 27.253906 27.128906 Z M 47.265625 22.867188 C 47.265625 22.785156 47.207031 22.71875 47.175781 22.636719 C 47.6875 22.398438 48.179688 22.125 48.65625 21.816406 C 48.890625 21.640625 48.945312 21.308594 48.777344 21.066406 C 48.613281 20.820312 48.285156 20.75 48.035156 20.898438 C 46.601562 21.832031 44.976562 22.433594 43.28125 22.660156 C 42.652344 22.707031 42.027344 22.824219 41.421875 23.007812 L 41.332031 23.007812 C 40.222656 23.300781 39.277344 24.03125 38.714844 25.035156 L 38.714844 25.070312 C 38.484375 25.519531 38.347656 26.011719 38.316406 26.511719 C 38.191406 27.527344 38.25 28.554688 38.488281 29.546875 C 38.5625 29.769531 38.773438 29.921875 39.011719 29.921875 C 39.191406 29.925781 39.363281 29.839844 39.46875 29.691406 C 39.578125 29.542969 39.605469 29.355469 39.542969 29.183594 C 39.386719 28.453125 39.339844 27.707031 39.402344 26.964844 C 40.234375 28.035156 41.515625 28.65625 42.867188 28.652344 C 43.3125 28.652344 43.757812 28.589844 44.183594 28.464844 C 45.335938 28.136719 46.3125 27.359375 46.890625 26.308594 C 47.46875 25.257812 47.601562 24.019531 47.265625 22.867188 Z M 43.347656 23.769531 L 43.792969 23.71875 C 43.816406 23.757812 43.839844 23.800781 43.859375 23.84375 C 44 24.351562 43.707031 24.878906 43.203125 25.027344 C 42.890625 25.121094 42.554688 25.050781 42.308594 24.839844 C 42.066406 24.628906 41.945312 24.304688 41.996094 23.984375 C 42.441406 23.875 42.898438 23.800781 43.355469 23.769531 Z M 43.890625 27.363281 C 43.03125 27.621094 42.109375 27.535156 41.316406 27.128906 C 40.621094 26.746094 40.09375 26.117188 39.839844 25.367188 C 40.113281 24.953125 40.492188 24.621094 40.933594 24.398438 C 40.945312 24.492188 40.960938 24.582031 40.984375 24.671875 C 41.246094 25.550781 42.054688 26.152344 42.972656 26.152344 C 43.605469 26.136719 44.199219 25.835938 44.582031 25.328125 C 44.960938 24.820312 45.089844 24.167969 44.929688 23.554688 L 44.929688 23.511719 C 45.355469 23.398438 45.777344 23.261719 46.1875 23.105469 L 46.1875 23.191406 C 46.6875 24.976562 45.664062 26.835938 43.890625 27.363281 Z M 43.890625 27.363281 "/>
<path style=" stroke:none;fill-rule:nonzero;fill:rgb(11.372549%,11.372549%,10.588235%);fill-opacity:1;" d="M 31.570312 24.214844 C 31.453125 22.550781 30.089844 21.492188 27.765625 21.3125 C 26.535156 21.152344 25.355469 20.726562 24.304688 20.0625 C 24.050781 19.894531 23.707031 19.964844 23.535156 20.21875 C 23.367188 20.476562 23.4375 20.820312 23.691406 20.988281 C 24.898438 21.757812 26.261719 22.246094 27.683594 22.417969 C 28.679688 22.488281 30.363281 22.835938 30.46875 24.289062 C 30.488281 24.578125 30.730469 24.804688 31.023438 24.804688 L 31.058594 24.804688 C 31.363281 24.78125 31.589844 24.515625 31.570312 24.214844 Z M 41.160156 22.417969 C 42.582031 22.246094 43.945312 21.757812 45.152344 20.988281 C 45.40625 20.820312 45.476562 20.476562 45.308594 20.21875 C 45.136719 19.964844 44.792969 19.894531 44.539062 20.0625 C 43.488281 20.734375 42.308594 21.167969 41.074219 21.335938 C 38.773438 21.515625 37.378906 22.570312 37.265625 24.234375 C 37.257812 24.382812 37.304688 24.527344 37.402344 24.640625 C 37.5 24.75 37.636719 24.816406 37.785156 24.828125 L 37.820312 24.828125 C 38.113281 24.828125 38.355469 24.601562 38.375 24.308594 C 38.480469 22.816406 40.195312 22.496094 41.160156 22.417969 Z M 22.929688 18.5625 C 23.054688 18.722656 23.253906 18.804688 23.453125 18.773438 C 23.652344 18.742188 23.820312 18.605469 23.890625 18.414062 C 23.960938 18.226562 23.921875 18.011719 23.789062 17.859375 L 21.429688 14.960938 C 21.308594 14.800781 21.105469 14.722656 20.90625 14.753906 C 20.707031 14.78125 20.539062 14.917969 20.472656 15.109375 C 20.402344 15.300781 20.441406 15.511719 20.574219 15.664062 Z M 25.414062 16.957031 C 25.496094 17.171875 25.703125 17.3125 25.929688 17.3125 C 26.109375 17.3125 26.277344 17.222656 26.378906 17.078125 C 26.484375 16.929688 26.507812 16.742188 26.449219 16.574219 L 25.40625 13.851562 C 25.296875 13.566406 24.976562 13.425781 24.691406 13.535156 C 24.402344 13.644531 24.261719 13.964844 24.371094 14.25 Z M 28.371094 17.039062 C 28.660156 17.039062 28.902344 16.816406 28.925781 16.53125 L 29.109375 14.175781 C 29.121094 14.03125 29.074219 13.882812 28.976562 13.773438 C 28.882812 13.660156 28.746094 13.589844 28.597656 13.578125 C 28.453125 13.5625 28.304688 13.609375 28.191406 13.707031 C 28.078125 13.804688 28.007812 13.941406 28 14.089844 L 27.816406 16.449219 C 27.804688 16.601562 27.859375 16.753906 27.964844 16.863281 C 28.070312 16.976562 28.214844 17.039062 28.371094 17.039062 Z M 28.371094 17.039062 "/>
<path style=" stroke:none;fill-rule:nonzero;fill:rgb(11.372549%,11.372549%,10.588235%);fill-opacity:1;" d="M 67.765625 36.128906 C 64.882812 35.210938 58.097656 35.292969 52.585938 35.542969 C 56.28125 30.875 56.28125 26.367188 55.625 24.242188 C 55.121094 22.652344 54.34375 18.644531 55.335938 17.082031 C 55.519531 16.765625 55.84375 16.554688 56.207031 16.515625 C 57.507812 16.34375 57.746094 14.992188 57.929688 13.910156 C 57.980469 13.523438 58.066406 13.144531 58.1875 12.773438 C 58.410156 12.375 58.71875 12.027344 59.089844 11.757812 C 60.125 10.933594 60.933594 9.855469 61.441406 8.632812 C 62.613281 5.738281 61.039062 4.3125 60.972656 4.253906 C 60.914062 4.207031 60.84375 4.171875 60.765625 4.15625 L 60.664062 4.15625 C 59.457031 3.839844 58.171875 4.035156 57.109375 4.695312 C 56.605469 4.941406 55.984375 5.238281 55.070312 5.621094 C 53.097656 6.617188 50.707031 6.222656 49.15625 4.644531 C 45.832031 1.449219 43.488281 0.527344 34.320312 0.527344 C 25.148438 0.527344 22.835938 1.457031 19.539062 4.644531 C 17.988281 6.222656 15.601562 6.617188 13.625 5.621094 C 12.9375 5.332031 12.257812 5.023438 11.585938 4.695312 C 10.527344 4.035156 9.242188 3.839844 8.03125 4.15625 L 7.929688 4.15625 C 7.855469 4.171875 7.785156 4.207031 7.722656 4.253906 C 7.65625 4.3125 6.082031 5.730469 7.257812 8.632812 C 7.761719 9.855469 8.570312 10.933594 9.605469 11.757812 C 9.976562 12.027344 10.285156 12.375 10.507812 12.773438 C 10.585938 13.15625 10.628906 13.546875 10.632812 13.941406 C 10.820312 15.027344 11.046875 16.375 12.355469 16.542969 C 12.71875 16.585938 13.042969 16.796875 13.226562 17.113281 C 14.21875 18.675781 13.441406 22.683594 12.941406 24.273438 C 12.265625 26.394531 12.296875 30.929688 15.976562 35.574219 C 10.464844 35.320312 3.679688 35.238281 0.796875 36.15625 C 0.507812 36.25 0.34375 36.5625 0.441406 36.855469 C 0.535156 37.148438 0.847656 37.308594 1.136719 37.214844 C 4.160156 36.253906 12.222656 36.476562 16.789062 36.726562 L 16.972656 36.726562 L 17.453125 37.238281 C 11.78125 37.316406 7.929688 37.710938 6 38.40625 C 5.808594 38.46875 5.667969 38.628906 5.628906 38.828125 C 5.59375 39.027344 5.664062 39.230469 5.820312 39.359375 C 5.976562 39.488281 6.191406 39.523438 6.378906 39.449219 C 8.285156 38.761719 12.511719 38.375 18.613281 38.332031 C 18.875 38.554688 19.140625 38.765625 19.40625 38.980469 C 14.625 39.25 6.84375 39.875 3.886719 41.199219 C 3.632812 41.335938 3.523438 41.648438 3.640625 41.914062 C 3.757812 42.179688 4.058594 42.308594 4.332031 42.214844 C 7.410156 40.859375 16.289062 40.261719 20.75 40.03125 L 21.488281 40.566406 L 21.5625 40.617188 C 16.914062 41.066406 13.738281 41.652344 12.113281 42.363281 C 11.855469 42.496094 11.75 42.808594 11.863281 43.074219 C 11.980469 43.339844 12.28125 43.46875 12.554688 43.375 C 14.085938 42.703125 17.320312 42.125 21.957031 41.6875 C 21.933594 43.054688 22.101562 44.421875 22.457031 45.742188 C 23.664062 48.9375 25.308594 49.71875 27.230469 49.882812 C 27.507812 50.402344 27.890625 50.859375 28.355469 51.222656 C 27.320312 52.15625 26.472656 53.277344 25.851562 54.527344 C 25.738281 54.8125 25.882812 55.132812 26.167969 55.246094 C 26.453125 55.355469 26.773438 55.210938 26.882812 54.925781 C 27.082031 54.410156 27.683594 53.449219 29.316406 51.828125 C 29.789062 52.070312 30.285156 52.261719 30.792969 52.40625 C 30.433594 53.210938 30.207031 54.066406 30.113281 54.941406 C 30.105469 55.089844 30.15625 55.234375 30.253906 55.34375 C 30.351562 55.453125 30.492188 55.519531 30.636719 55.527344 C 30.933594 55.527344 31.175781 55.296875 31.191406 55 C 31.289062 54.1875 31.515625 53.398438 31.867188 52.65625 C 33.464844 52.921875 35.097656 52.921875 36.699219 52.65625 C 37.042969 53.398438 37.269531 54.1875 37.371094 55 C 37.386719 55.296875 37.628906 55.527344 37.925781 55.527344 C 38.070312 55.519531 38.210938 55.453125 38.308594 55.34375 C 38.40625 55.234375 38.457031 55.089844 38.449219 54.941406 C 38.367188 54.0625 38.144531 53.207031 37.792969 52.398438 C 38.300781 52.253906 38.796875 52.0625 39.269531 51.820312 C 40.902344 53.441406 41.488281 54.402344 41.703125 54.917969 C 41.8125 55.203125 42.132812 55.347656 42.417969 55.238281 C 42.703125 55.125 42.847656 54.804688 42.734375 54.519531 C 42.113281 53.273438 41.265625 52.152344 40.230469 51.214844 C 40.695312 50.851562 41.078125 50.394531 41.355469 49.875 C 43.273438 49.710938 44.921875 48.9375 46.121094 45.742188 C 46.464844 44.425781 46.628906 43.070312 46.601562 41.710938 C 51.234375 42.148438 54.476562 42.722656 56 43.398438 C 56.183594 43.496094 56.40625 43.480469 56.578125 43.363281 C 56.75 43.242188 56.839844 43.039062 56.808594 42.832031 C 56.78125 42.625 56.640625 42.453125 56.445312 42.382812 C 54.804688 41.644531 51.566406 41.074219 46.835938 40.625 L 47.429688 40.210938 L 47.65625 40.046875 C 52.089844 40.269531 61.105469 40.867188 64.226562 42.265625 C 64.5 42.359375 64.800781 42.230469 64.917969 41.964844 C 65.03125 41.699219 64.925781 41.386719 64.667969 41.253906 C 61.667969 39.9375 53.871094 39.316406 49.097656 39.035156 C 49.378906 38.820312 49.652344 38.605469 49.917969 38.382812 C 56.039062 38.417969 60.265625 38.804688 62.179688 39.5 C 62.464844 39.59375 62.773438 39.445312 62.875 39.160156 C 62.976562 38.878906 62.835938 38.566406 62.554688 38.457031 C 60.632812 37.761719 56.785156 37.371094 51.101562 37.289062 L 51.582031 36.777344 L 51.765625 36.777344 C 56.3125 36.546875 64.394531 36.304688 67.417969 37.265625 C 67.734375 37.363281 68.066406 37.183594 68.160156 36.871094 C 68.257812 36.554688 68.078125 36.222656 67.765625 36.128906 Z M 36.726562 50.113281 C 36.574219 49.847656 36.234375 49.753906 35.96875 49.910156 C 35.707031 50.0625 35.613281 50.402344 35.765625 50.667969 C 35.886719 50.867188 36.054688 51.183594 36.238281 51.554688 C 34.960938 51.738281 33.660156 51.738281 32.382812 51.554688 C 32.640625 51.027344 32.847656 50.675781 32.855469 50.667969 C 33.007812 50.402344 32.917969 50.0625 32.652344 49.910156 C 32.386719 49.753906 32.046875 49.847656 31.894531 50.113281 C 31.894531 50.15625 31.585938 50.652344 31.25 51.339844 C 30.242188 51.121094 29.320312 50.605469 28.605469 49.859375 L 30.402344 49.859375 C 32.023438 49.855469 33.507812 48.964844 34.28125 47.539062 C 35.0625 48.96875 36.5625 49.859375 38.191406 49.851562 L 39.988281 49.851562 C 39.273438 50.597656 38.351562 51.113281 37.339844 51.332031 C 37.007812 50.667969 36.726562 50.179688 36.699219 50.125 Z M 49.363281 37.347656 L 49.304688 37.390625 C 48.683594 37.910156 47.996094 38.414062 47.324219 38.871094 L 46.75 38.871094 C 46.84375 37.605469 47.082031 36.46875 47.539062 36.128906 C 47.785156 35.933594 47.828125 35.582031 47.636719 35.335938 C 47.445312 35.089844 47.089844 35.046875 46.84375 35.238281 C 46.105469 35.855469 45.78125 37.191406 45.640625 38.8125 L 45.1875 38.8125 C 45.042969 38.804688 44.894531 38.855469 44.789062 38.960938 C 44.679688 39.0625 44.621094 39.203125 44.621094 39.351562 C 44.613281 39.65625 44.855469 39.914062 45.160156 39.921875 L 45.574219 39.921875 L 45.574219 40.46875 L 45.441406 40.46875 C 45.136719 40.445312 44.875 40.667969 44.84375 40.972656 C 44.816406 41.273438 45.039062 41.542969 45.34375 41.570312 L 45.5 41.570312 C 45.519531 42.828125 45.382812 44.082031 45.085938 45.304688 C 44.042969 48.078125 42.796875 48.664062 40.984375 48.75 L 38.191406 48.75 C 36.363281 48.746094 34.875 47.28125 34.84375 45.453125 C 35.101562 45.210938 35.390625 45 35.699219 44.832031 C 36.441406 44.359375 37.527344 43.707031 37.125 42.769531 C 36.988281 42.441406 37.082031 42.289062 38.355469 41.421875 L 38.820312 41.105469 C 39.371094 40.808594 39.734375 40.25 39.78125 39.625 C 39.746094 39.140625 39.484375 38.703125 39.078125 38.441406 C 38.828125 38.289062 38.5 38.359375 38.339844 38.605469 C 38.191406 38.855469 38.257812 39.175781 38.492188 39.34375 C 38.554688 39.390625 38.6875 39.515625 38.695312 39.617188 C 38.699219 39.722656 38.566406 39.921875 38.207031 40.171875 L 37.746094 40.492188 C 36.542969 41.304688 35.597656 41.96875 36.121094 43.128906 C 36.0625 43.316406 35.464844 43.679688 35.140625 43.871094 C 34.847656 44.042969 34.570312 44.230469 34.304688 44.441406 C 34.039062 44.230469 33.757812 44.042969 33.46875 43.871094 C 33.117188 43.675781 32.789062 43.445312 32.484375 43.183594 C 33.011719 41.949219 32.058594 41.304688 30.859375 40.484375 L 30.402344 40.164062 C 30.046875 39.914062 29.914062 39.714844 29.914062 39.609375 C 29.914062 39.507812 30.046875 39.382812 30.105469 39.335938 C 30.34375 39.164062 30.40625 38.835938 30.25 38.585938 C 30.089844 38.339844 29.765625 38.257812 29.507812 38.40625 C 29.101562 38.667969 28.839844 39.105469 28.804688 39.589844 C 28.851562 40.214844 29.214844 40.769531 29.765625 41.066406 L 30.230469 41.386719 C 31.511719 42.25 31.597656 42.40625 31.457031 42.730469 C 31.058594 43.679688 32.117188 44.320312 32.886719 44.792969 C 33.183594 44.964844 33.46875 45.15625 33.742188 45.363281 C 33.734375 47.210938 32.234375 48.707031 30.386719 48.707031 L 29.234375 48.707031 C 26.484375 48.773438 24.800781 48.808594 23.484375 45.261719 C 23.191406 44.039062 23.050781 42.785156 23.070312 41.527344 L 23.226562 41.527344 C 23.53125 41.5 23.757812 41.230469 23.734375 40.921875 C 23.707031 40.617188 23.4375 40.390625 23.128906 40.417969 L 23.027344 40.417969 L 23.027344 39.871094 L 23.441406 39.871094 C 23.746094 39.871094 23.996094 39.621094 23.996094 39.316406 C 23.996094 39.007812 23.746094 38.761719 23.441406 38.761719 L 22.988281 38.761719 C 22.847656 37.140625 22.5625 35.800781 21.785156 35.1875 C 21.527344 34.976562 21.144531 35.015625 20.933594 35.277344 C 20.726562 35.535156 20.765625 35.917969 21.023438 36.128906 C 21.480469 36.488281 21.695312 37.605469 21.808594 38.871094 L 21.105469 38.871094 C 20.476562 38.398438 19.847656 37.902344 19.273438 37.390625 C 19.242188 37.351562 19.203125 37.316406 19.160156 37.289062 C 18.96875 37.117188 18.777344 36.949219 18.601562 36.777344 L 20.320312 36.890625 L 20.367188 36.890625 C 20.671875 36.902344 20.929688 36.664062 20.941406 36.355469 C 20.957031 36.050781 20.71875 35.792969 20.410156 35.78125 C 20.410156 35.78125 19.25 35.691406 17.453125 35.59375 C 13.433594 31.015625 13.332031 26.574219 13.96875 24.5625 C 13.96875 24.5 15.6875 18.925781 14.136719 16.476562 C 13.78125 15.898438 13.183594 15.511719 12.511719 15.421875 C 12.054688 15.359375 11.90625 14.679688 11.773438 13.726562 C 11.710938 13.261719 11.601562 12.808594 11.445312 12.367188 C 11.167969 11.796875 10.753906 11.300781 10.242188 10.921875 C 9.332031 10.210938 8.625 9.277344 8.1875 8.210938 C 7.449219 6.464844 8.019531 5.503906 8.261719 5.191406 C 8.800781 5.144531 9.34375 5.285156 9.792969 5.589844 C 9.84375 5.636719 15.347656 9.671875 17.765625 9.671875 L 18.023438 9.671875 C 15.808594 11.265625 14.507812 13.296875 14.507812 15.285156 C 14.507812 15.59375 14.753906 15.839844 15.058594 15.839844 C 15.367188 15.839844 15.613281 15.59375 15.613281 15.285156 C 15.613281 13.207031 17.535156 10.929688 20.515625 9.472656 C 21.671875 9.300781 22.792969 8.929688 23.824219 8.371094 C 24.003906 8.277344 24.113281 8.09375 24.121094 7.894531 C 24.125 7.695312 24.019531 7.507812 23.847656 7.402344 C 23.671875 7.300781 23.457031 7.300781 23.285156 7.402344 C 21.550781 8.257812 19.628906 8.660156 17.699219 8.570312 C 16.773438 8.570312 15.007812 7.675781 13.367188 6.6875 C 15.703125 7.734375 18.441406 7.226562 20.242188 5.40625 C 23.195312 2.582031 25.035156 1.597656 34.28125 1.597656 C 43.527344 1.597656 45.367188 2.589844 48.324219 5.40625 C 49.445312 6.554688 50.980469 7.207031 52.585938 7.21875 C 53.457031 7.207031 54.320312 7.035156 55.128906 6.714844 C 53.496094 7.699219 51.730469 8.585938 50.8125 8.585938 C 48.882812 8.675781 46.960938 8.273438 45.226562 7.417969 C 44.960938 7.277344 44.628906 7.375 44.484375 7.636719 C 44.335938 7.902344 44.425781 8.234375 44.6875 8.386719 C 45.722656 8.949219 46.851562 9.328125 48.019531 9.503906 C 50.976562 10.984375 52.917969 13.203125 52.917969 15.316406 C 52.917969 15.621094 53.167969 15.871094 53.472656 15.871094 C 53.78125 15.871094 54.027344 15.621094 54.027344 15.316406 C 54.027344 13.320312 52.71875 11.285156 50.511719 9.703125 L 50.835938 9.703125 C 53.25 9.703125 58.757812 5.664062 58.808594 5.621094 C 59.253906 5.316406 59.792969 5.175781 60.332031 5.222656 C 60.574219 5.539062 61.105469 6.5 60.40625 8.238281 C 59.96875 9.308594 59.257812 10.242188 58.351562 10.953125 C 57.839844 11.332031 57.425781 11.824219 57.144531 12.394531 C 56.992188 12.835938 56.882812 13.292969 56.820312 13.757812 C 56.652344 14.738281 56.511719 15.390625 56.082031 15.449219 C 55.394531 15.535156 54.78125 15.929688 54.417969 16.523438 C 52.859375 18.96875 54.566406 24.554688 54.589844 24.605469 C 55.230469 26.625 55.121094 31.070312 51.101562 35.640625 C 49.335938 35.734375 48.144531 35.824219 48.144531 35.824219 C 47.839844 35.835938 47.601562 36.09375 47.613281 36.402344 C 47.625 36.707031 47.882812 36.945312 48.191406 36.933594 L 48.234375 36.933594 L 49.957031 36.824219 C 49.800781 36.992188 49.570312 37.171875 49.363281 37.347656 Z M 49.363281 37.347656 "/>
<path style=" stroke:none;fill-rule:nonzero;fill:rgb(11.372549%,11.372549%,10.588235%);fill-opacity:1;" d="M 45.195312 18.769531 C 45.363281 18.769531 45.519531 18.691406 45.625 18.5625 L 47.984375 15.664062 C 48.113281 15.511719 48.152344 15.300781 48.085938 15.109375 C 48.015625 14.917969 47.847656 14.78125 47.648438 14.753906 C 47.449219 14.722656 47.25 14.800781 47.125 14.960938 L 44.769531 17.859375 C 44.636719 18.027344 44.609375 18.253906 44.699219 18.445312 C 44.789062 18.636719 44.984375 18.761719 45.195312 18.761719 Z M 42.460938 17.277344 C 42.527344 17.289062 42.597656 17.289062 42.660156 17.277344 C 42.890625 17.277344 43.097656 17.136719 43.179688 16.921875 L 44.222656 14.199219 C 44.332031 13.914062 44.1875 13.59375 43.902344 13.480469 C 43.617188 13.371094 43.296875 13.515625 43.1875 13.800781 L 42.144531 16.523438 C 42.078125 16.664062 42.078125 16.824219 42.136719 16.96875 C 42.199219 17.113281 42.316406 17.222656 42.460938 17.277344 Z M 40.195312 17.046875 C 40.339844 17.035156 40.476562 16.964844 40.574219 16.855469 C 40.667969 16.742188 40.714844 16.59375 40.703125 16.449219 L 40.519531 14.089844 C 40.496094 13.78125 40.226562 13.554688 39.921875 13.578125 C 39.613281 13.601562 39.386719 13.871094 39.410156 14.175781 L 39.59375 16.535156 C 39.605469 16.683594 39.675781 16.820312 39.789062 16.917969 C 39.902344 17.011719 40.046875 17.058594 40.195312 17.046875 Z M 40.195312 17.046875 "/>
<path style=" stroke:none;fill-rule:nonzero;fill:rgb(11.372549%,11.372549%,10.588235%);fill-opacity:1;" d="M 26.285156 42.664062 C 26.285156 43.09375 25.9375 43.441406 25.511719 43.441406 C 25.082031 43.441406 24.734375 43.09375 24.734375 42.664062 C 24.734375 42.234375 25.082031 41.886719 25.511719 41.886719 C 25.9375 41.886719 26.285156 42.234375 26.285156 42.664062 Z M 26.285156 42.664062 "/>
<path style=" stroke:none;fill-rule:nonzero;fill:rgb(11.372549%,11.372549%,10.588235%);fill-opacity:1;" d="M 26.542969 45.304688 C 26.542969 45.734375 26.195312 46.082031 25.769531 46.082031 C 25.339844 46.082031 24.992188 45.734375 24.992188 45.304688 C 24.992188 44.875 25.339844 44.527344 25.769531 44.527344 C 26.195312 44.527344 26.542969 44.875 26.542969 45.304688 Z M 26.542969 45.304688 "/>
<path style=" stroke:none;fill-rule:nonzero;fill:rgb(11.372549%,11.372549%,10.588235%);fill-opacity:1;" d="M 28.570312 47.042969 C 28.570312 47.472656 28.222656 47.820312 27.792969 47.820312 C 27.363281 47.820312 27.015625 47.472656 27.015625 47.042969 C 27.015625 46.613281 27.363281 46.265625 27.792969 46.265625 C 28.222656 46.265625 28.570312 46.613281 28.570312 47.042969 Z M 28.570312 47.042969 "/>
<path style=" stroke:none;fill-rule:nonzero;fill:rgb(11.372549%,11.372549%,10.588235%);fill-opacity:1;" d="M 29.25 44.34375 C 29.25 44.773438 28.902344 45.121094 28.472656 45.121094 C 28.042969 45.121094 27.699219 44.773438 27.699219 44.34375 C 27.699219 43.914062 28.042969 43.566406 28.472656 43.566406 C 28.902344 43.566406 29.25 43.914062 29.25 44.34375 Z M 29.25 44.34375 "/>
<path style=" stroke:none;fill-rule:nonzero;fill:rgb(11.372549%,11.372549%,10.588235%);fill-opacity:1;" d="M 31.40625 45.703125 C 31.40625 46.132812 31.058594 46.480469 30.632812 46.480469 C 30.203125 46.480469 29.855469 46.132812 29.855469 45.703125 C 29.855469 45.277344 30.203125 44.929688 30.632812 44.929688 C 31.058594 44.929688 31.40625 45.277344 31.40625 45.703125 Z M 31.40625 45.703125 "/>
<path style=" stroke:none;fill-rule:nonzero;fill:rgb(11.372549%,11.372549%,10.588235%);fill-opacity:1;" d="M 43.828125 42.664062 C 43.828125 43.09375 43.480469 43.441406 43.054688 43.441406 C 42.625 43.441406 42.277344 43.09375 42.277344 42.664062 C 42.277344 42.234375 42.625 41.886719 43.054688 41.886719 C 43.480469 41.886719 43.828125 42.234375 43.828125 42.664062 Z M 43.828125 42.664062 "/>
<path style=" stroke:none;fill-rule:nonzero;fill:rgb(11.372549%,11.372549%,10.588235%);fill-opacity:1;" d="M 43.570312 45.304688 C 43.570312 45.734375 43.222656 46.082031 42.796875 46.082031 C 42.367188 46.082031 42.019531 45.734375 42.019531 45.304688 C 42.019531 44.875 42.367188 44.527344 42.796875 44.527344 C 43.222656 44.527344 43.570312 44.875 43.570312 45.304688 Z M 43.570312 45.304688 "/>
<path style=" stroke:none;fill-rule:nonzero;fill:rgb(11.372549%,11.372549%,10.588235%);fill-opacity:1;" d="M 41.546875 47.042969 C 41.546875 47.472656 41.199219 47.820312 40.769531 47.820312 C 40.339844 47.820312 39.996094 47.472656 39.996094 47.042969 C 39.996094 46.613281 40.339844 46.265625 40.769531 46.265625 C 41.199219 46.265625 41.546875 46.613281 41.546875 47.042969 Z M 41.546875 47.042969 "/>
<path style=" stroke:none;fill-rule:nonzero;fill:rgb(11.372549%,11.372549%,10.588235%);fill-opacity:1;" d="M 40.867188 44.34375 C 40.867188 44.773438 40.519531 45.121094 40.089844 45.121094 C 39.660156 45.121094 39.3125 44.773438 39.3125 44.34375 C 39.3125 43.914062 39.660156 43.566406 40.089844 43.566406 C 40.519531 43.566406 40.867188 43.914062 40.867188 44.34375 Z M 40.867188 44.34375 "/>
<path style=" stroke:none;fill-rule:nonzero;fill:rgb(11.372549%,11.372549%,10.588235%);fill-opacity:1;" d="M 38.707031 45.703125 C 38.707031 46.132812 38.359375 46.480469 37.933594 46.480469 C 37.503906 46.480469 37.15625 46.132812 37.15625 45.703125 C 37.15625 45.277344 37.503906 44.929688 37.933594 44.929688 C 38.359375 44.929688 38.707031 45.277344 38.707031 45.703125 Z M 38.707031 45.703125 "/>
<path style=" stroke:none;fill-rule:nonzero;fill:rgb(11.372549%,11.372549%,10.588235%);fill-opacity:1;" d="M 36.914062 29.839844 C 36.765625 29.828125 36.621094 29.875 36.507812 29.972656 C 36.394531 30.066406 36.324219 30.203125 36.3125 30.351562 C 36.105469 31.871094 35.386719 33.277344 34.28125 34.335938 C 33.175781 33.273438 32.464844 31.867188 32.265625 30.34375 C 32.238281 30.039062 31.972656 29.808594 31.664062 29.832031 C 31.359375 29.859375 31.132812 30.125 31.15625 30.433594 C 31.421875 32.40625 32.40625 34.210938 33.914062 35.507812 C 34.011719 35.585938 34.132812 35.628906 34.257812 35.632812 C 34.386719 35.628906 34.507812 35.585938 34.605469 35.507812 C 36.113281 34.210938 37.09375 32.40625 37.363281 30.433594 C 37.386719 30.148438 37.191406 29.894531 36.914062 29.839844 Z M 27.164062 31.839844 C 26.90625 31.695312 26.578125 31.785156 26.425781 32.039062 C 26.277344 32.296875 26.085938 32.570312 25.886719 32.859375 C 24.898438 34.292969 23.402344 36.46875 25.511719 38.773438 C 25.722656 38.953125 26.035156 38.949219 26.238281 38.761719 C 26.445312 38.574219 26.480469 38.265625 26.324219 38.035156 C 24.925781 36.519531 25.636719 35.210938 26.796875 33.523438 C 27.011719 33.207031 27.21875 32.910156 27.378906 32.628906 C 27.464844 32.496094 27.488281 32.335938 27.445312 32.1875 C 27.40625 32.035156 27.304688 31.910156 27.164062 31.839844 Z M 42.179688 32.039062 C 42.027344 31.773438 41.6875 31.679688 41.425781 31.835938 C 41.160156 31.988281 41.066406 32.328125 41.222656 32.59375 C 41.382812 32.875 41.589844 33.167969 41.804688 33.488281 C 42.964844 35.171875 43.675781 36.480469 42.277344 38 C 42.113281 38.136719 42.042969 38.359375 42.097656 38.566406 C 42.15625 38.777344 42.328125 38.933594 42.539062 38.96875 C 42.753906 39.007812 42.96875 38.914062 43.089844 38.738281 C 45.195312 36.453125 43.703125 34.300781 42.714844 32.820312 C 42.527344 32.570312 42.335938 32.296875 42.179688 32.039062 Z M 28.289062 39.085938 C 28.382812 38.792969 28.222656 38.480469 27.929688 38.386719 C 27.636719 38.292969 27.324219 38.453125 27.230469 38.746094 C 26.804688 40.117188 27.394531 41.601562 28.644531 42.308594 C 28.910156 42.464844 29.246094 42.371094 29.402344 42.105469 C 29.554688 41.839844 29.460938 41.5 29.199219 41.347656 C 28.398438 40.902344 28.019531 39.960938 28.289062 39.085938 Z M 39.914062 42.289062 C 41.164062 41.578125 41.75 40.09375 41.324219 38.722656 C 41.230469 38.429688 40.917969 38.269531 40.625 38.363281 C 40.335938 38.457031 40.171875 38.769531 40.269531 39.0625 C 40.523438 39.929688 40.148438 40.859375 39.359375 41.304688 C 39.09375 41.457031 39.003906 41.796875 39.15625 42.0625 C 39.308594 42.328125 39.648438 42.417969 39.914062 42.265625 Z M 36.410156 39.195312 C 35.871094 39.8125 35.09375 40.164062 34.277344 40.164062 C 33.460938 40.164062 32.683594 39.8125 32.144531 39.195312 C 31.941406 38.960938 31.585938 38.933594 31.347656 39.136719 C 31.109375 39.339844 31.085938 39.699219 31.289062 39.9375 C 32.035156 40.808594 33.125 41.308594 34.273438 41.308594 C 35.421875 41.308594 36.511719 40.808594 37.261719 39.9375 C 37.464844 39.699219 37.4375 39.339844 37.199219 39.136719 C 36.964844 38.933594 36.605469 38.960938 36.402344 39.195312 Z M 19.878906 28.375 C 19.703125 28.261719 19.480469 28.253906 19.296875 28.355469 C 19.117188 28.460938 19.007812 28.65625 19.019531 28.867188 C 19.027344 29.074219 19.15625 29.261719 19.347656 29.34375 C 21.289062 30.417969 22.132812 32 22.132812 32.570312 C 22.132812 32.875 22.378906 33.125 22.6875 33.125 C 22.992188 33.125 23.242188 32.875 23.242188 32.570312 C 23.242188 31.421875 21.984375 29.539062 19.878906 28.375 Z M 49.496094 28.597656 C 49.351562 28.335938 49.023438 28.238281 48.757812 28.375 C 46.636719 29.539062 45.367188 31.421875 45.367188 32.578125 C 45.367188 32.882812 45.613281 33.132812 45.921875 33.132812 C 46.226562 33.132812 46.476562 32.882812 46.476562 32.578125 C 46.476562 32.007812 47.316406 30.417969 49.261719 29.351562 C 49.394531 29.285156 49.492188 29.167969 49.539062 29.027344 C 49.582031 28.882812 49.566406 28.730469 49.496094 28.597656 Z M 49.496094 28.597656 "/>
<path style=" stroke:none;fill-rule:nonzero;fill:rgb(0%,0%,0%);fill-opacity:1;" d="M 84.347656 42.144531 L 83.671875 40.453125 L 81.089844 40.453125 L 80.417969 42.144531 L 79.988281 42.144531 L 82.140625 36.75 L 82.625 36.75 L 84.78125 42.144531 Z M 81.242188 40.078125 L 83.523438 40.078125 L 82.585938 37.722656 L 82.386719 37.152344 L 82.378906 37.152344 L 82.183594 37.707031 Z M 91.808594 39.503906 L 94.027344 39.503906 L 94.027344 42.144531 L 93.699219 42.144531 L 93.679688 41.207031 C 93.535156 41.53125 93.304688 41.785156 92.992188 41.964844 C 92.675781 42.140625 92.289062 42.226562 91.824219 42.226562 C 91.335938 42.226562 90.90625 42.113281 90.539062 41.890625 C 90.171875 41.664062 89.886719 41.339844 89.6875 40.917969 C 89.488281 40.5 89.390625 40.007812 89.390625 39.449219 C 89.390625 38.886719 89.492188 38.394531 89.699219 37.976562 C 89.902344 37.554688 90.1875 37.230469 90.558594 37.003906 C 90.929688 36.78125 91.359375 36.667969 91.847656 36.667969 C 92.402344 36.667969 92.851562 36.777344 93.195312 36.992188 C 93.546875 37.210938 93.808594 37.542969 93.984375 37.992188 L 93.605469 38.183594 C 93.480469 37.8125 93.269531 37.527344 92.976562 37.332031 C 92.679688 37.136719 92.304688 37.039062 91.847656 37.039062 C 91.449219 37.039062 91.09375 37.136719 90.785156 37.332031 C 90.484375 37.527344 90.246094 37.804688 90.078125 38.167969 C 89.910156 38.53125 89.824219 38.957031 89.824219 39.449219 C 89.824219 40.195312 90.003906 40.78125 90.359375 41.210938 C 90.71875 41.640625 91.210938 41.855469 91.84375 41.855469 C 92.234375 41.855469 92.570312 41.777344 92.839844 41.621094 C 93.113281 41.464844 93.3125 41.261719 93.441406 41.007812 C 93.574219 40.753906 93.640625 40.480469 93.640625 40.1875 L 93.640625 39.890625 L 91.808594 39.890625 Z M 99.96875 41.773438 L 103.371094 41.773438 L 103.371094 42.144531 L 99.558594 42.144531 L 99.558594 36.75 L 103.242188 36.75 L 103.242188 37.121094 L 99.96875 37.121094 L 99.96875 39.207031 L 102.554688 39.207031 L 102.554688 39.59375 L 99.96875 39.59375 Z M 112.785156 36.75 L 112.785156 42.144531 L 112.277344 42.144531 L 109.417969 37.910156 L 109.023438 37.191406 L 109.011719 37.191406 L 109.039062 37.871094 L 109.039062 42.144531 L 108.640625 42.144531 L 108.640625 36.75 L 109.160156 36.75 L 112.011719 40.976562 L 112.417969 41.703125 L 112.402344 41.023438 L 112.402344 36.75 Z M 122.839844 40.777344 C 122.6875 41.238281 122.421875 41.59375 122.042969 41.847656 C 121.664062 42.101562 121.210938 42.226562 120.683594 42.226562 C 120.195312 42.226562 119.761719 42.113281 119.390625 41.890625 C 119.019531 41.664062 118.734375 41.339844 118.53125 40.917969 C 118.332031 40.5 118.234375 40.007812 118.234375 39.449219 C 118.234375 38.886719 118.332031 38.394531 118.53125 37.976562 C 118.734375 37.554688 119.019531 37.230469 119.390625 37.003906 C 119.761719 36.78125 120.191406 36.667969 120.671875 36.667969 C 121.75 36.667969 122.449219 37.109375 122.769531 38 L 122.367188 38.183594 C 122.242188 37.804688 122.039062 37.519531 121.765625 37.328125 C 121.488281 37.136719 121.132812 37.039062 120.695312 37.039062 C 120.296875 37.039062 119.941406 37.136719 119.632812 37.332031 C 119.328125 37.527344 119.085938 37.804688 118.914062 38.167969 C 118.75 38.53125 118.664062 38.957031 118.664062 39.449219 C 118.664062 39.9375 118.75 40.363281 118.914062 40.726562 C 119.078125 41.089844 119.3125 41.367188 119.617188 41.5625 C 119.917969 41.757812 120.277344 41.855469 120.683594 41.855469 C 121.121094 41.855469 121.488281 41.746094 121.792969 41.53125 C 122.097656 41.320312 122.308594 41.015625 122.429688 40.628906 Z M 128.535156 41.773438 L 131.945312 41.773438 L 131.945312 42.144531 L 128.128906 42.144531 L 128.128906 36.75 L 131.808594 36.75 L 131.808594 37.121094 L 128.535156 37.121094 L 128.535156 39.207031 L 131.128906 39.207031 L 131.128906 39.59375 L 128.535156 39.59375 Z M 145.558594 36.75 C 146.417969 36.75 147.082031 36.976562 147.546875 37.433594 C 148.015625 37.886719 148.25 38.546875 148.25 39.40625 C 148.25 40.289062 148.015625 40.96875 147.546875 41.4375 C 147.082031 41.910156 146.417969 42.144531 145.558594 42.144531 L 143.859375 42.144531 L 143.859375 36.75 Z M 145.59375 41.773438 C 146.3125 41.773438 146.863281 41.566406 147.246094 41.160156 C 147.628906 40.753906 147.820312 40.167969 147.820312 39.40625 C 147.820312 38.675781 147.628906 38.113281 147.246094 37.71875 C 146.863281 37.320312 146.3125 37.121094 145.59375 37.121094 L 144.265625 37.121094 L 144.265625 41.773438 Z M 154.109375 41.773438 L 157.511719 41.773438 L 157.511719 42.144531 L 153.699219 42.144531 L 153.699219 36.75 L 157.382812 36.75 L 157.382812 37.121094 L 154.109375 37.121094 L 154.109375 39.207031 L 156.695312 39.207031 L 156.695312 39.59375 L 154.109375 39.59375 Z M 172.097656 38.359375 L 171.011719 42.144531 L 170.503906 42.144531 L 168.824219 36.75 L 169.269531 36.75 L 170.761719 41.8125 L 172.175781 36.75 L 172.648438 36.75 L 174.0625 41.820312 L 175.574219 36.75 L 175.992188 36.75 L 174.304688 42.144531 L 173.804688 42.144531 L 172.710938 38.359375 L 172.414062 37.191406 L 172.402344 37.191406 Z M 181.578125 41.773438 L 184.988281 41.773438 L 184.988281 42.144531 L 181.171875 42.144531 L 181.171875 36.75 L 184.859375 36.75 L 184.859375 37.121094 L 181.578125 37.121094 L 181.578125 39.207031 L 184.171875 39.207031 L 184.171875 39.59375 L 181.578125 39.59375 Z M 190.257812 42.144531 L 190.257812 36.75 L 192.160156 36.75 C 192.753906 36.75 193.195312 36.871094 193.488281 37.117188 C 193.773438 37.363281 193.917969 37.714844 193.917969 38.179688 C 193.917969 38.496094 193.832031 38.761719 193.664062 38.980469 C 193.492188 39.199219 193.246094 39.339844 192.933594 39.40625 L 192.933594 39.414062 C 193.28125 39.464844 193.558594 39.609375 193.761719 39.839844 C 193.96875 40.070312 194.070312 40.351562 194.070312 40.691406 C 194.070312 41.15625 193.90625 41.511719 193.574219 41.765625 C 193.242188 42.019531 192.773438 42.144531 192.160156 42.144531 Z M 190.667969 39.238281 L 192.171875 39.238281 C 193.050781 39.238281 193.488281 38.882812 193.488281 38.179688 C 193.488281 37.476562 193.050781 37.121094 192.171875 37.121094 L 190.667969 37.121094 Z M 190.667969 41.773438 L 192.242188 41.773438 C 192.703125 41.773438 193.050781 41.679688 193.28125 41.492188 C 193.515625 41.304688 193.632812 41.039062 193.632812 40.691406 C 193.632812 40.335938 193.515625 40.070312 193.28125 39.886719 C 193.050781 39.703125 192.703125 39.609375 192.242188 39.609375 L 190.667969 39.609375 Z M 207.851562 36.75 C 208.714844 36.75 209.378906 36.976562 209.84375 37.433594 C 210.308594 37.886719 210.542969 38.546875 210.542969 39.40625 C 210.542969 40.289062 210.308594 40.96875 209.84375 41.4375 C 209.378906 41.910156 208.714844 42.144531 207.851562 42.144531 L 206.152344 42.144531 L 206.152344 36.75 Z M 207.886719 41.773438 C 208.609375 41.773438 209.160156 41.566406 209.546875 41.160156 C 209.925781 40.753906 210.117188 40.167969 210.117188 39.40625 C 210.117188 38.675781 209.925781 38.113281 209.546875 37.71875 C 209.160156 37.320312 208.609375 37.121094 207.886719 37.121094 L 206.5625 37.121094 L 206.5625 41.773438 Z M 216.402344 41.773438 L 219.8125 41.773438 L 219.8125 42.144531 L 215.996094 42.144531 L 215.996094 36.75 L 219.679688 36.75 L 219.679688 37.121094 L 216.402344 37.121094 L 216.402344 39.207031 L 218.996094 39.207031 L 218.996094 39.59375 L 216.402344 39.59375 Z M 226.746094 36.667969 C 227.761719 36.667969 228.441406 37.0625 228.785156 37.859375 L 228.433594 38.144531 C 228.296875 37.757812 228.09375 37.480469 227.820312 37.304688 C 227.554688 37.128906 227.199219 37.039062 226.757812 37.039062 C 226.441406 37.039062 226.164062 37.089844 225.929688 37.191406 C 225.695312 37.289062 225.519531 37.421875 225.398438 37.589844 C 225.273438 37.761719 225.210938 37.953125 225.210938 38.164062 C 225.210938 38.367188 225.265625 38.539062 225.371094 38.675781 C 225.472656 38.8125 225.644531 38.929688 225.894531 39.027344 C 226.144531 39.121094 226.488281 39.207031 226.921875 39.285156 C 227.625 39.40625 228.121094 39.578125 228.417969 39.808594 C 228.710938 40.035156 228.855469 40.351562 228.855469 40.753906 C 228.855469 41.042969 228.769531 41.300781 228.605469 41.527344 C 228.4375 41.75 228.199219 41.921875 227.890625 42.039062 C 227.582031 42.164062 227.226562 42.226562 226.828125 42.226562 C 226.265625 42.226562 225.789062 42.113281 225.398438 41.890625 C 225.007812 41.664062 224.738281 41.347656 224.601562 40.9375 L 224.960938 40.65625 C 225.070312 41.046875 225.289062 41.34375 225.617188 41.542969 C 225.945312 41.75 226.355469 41.855469 226.839844 41.855469 C 227.308594 41.855469 227.691406 41.757812 227.984375 41.566406 C 228.285156 41.378906 228.433594 41.113281 228.433594 40.777344 C 228.433594 40.492188 228.3125 40.261719 228.066406 40.09375 C 227.824219 39.925781 227.40625 39.789062 226.804688 39.6875 C 226.300781 39.597656 225.898438 39.488281 225.605469 39.367188 C 225.3125 39.242188 225.101562 39.085938 224.972656 38.898438 C 224.84375 38.714844 224.78125 38.484375 224.78125 38.203125 C 224.78125 37.925781 224.859375 37.671875 225.019531 37.4375 C 225.179688 37.199219 225.410156 37.011719 225.707031 36.878906 C 226.003906 36.738281 226.351562 36.667969 226.746094 36.667969 Z M 234.632812 36.75 L 234.632812 42.144531 L 234.226562 42.144531 L 234.226562 36.75 Z M 242.496094 39.503906 L 244.710938 39.503906 L 244.710938 42.144531 L 244.382812 42.144531 L 244.371094 41.207031 C 244.222656 41.53125 243.992188 41.785156 243.675781 41.964844 C 243.363281 42.140625 242.976562 42.226562 242.515625 42.226562 C 242.023438 42.226562 241.59375 42.113281 241.222656 41.890625 C 240.859375 41.664062 240.578125 41.339844 240.378906 40.917969 C 240.179688 40.5 240.082031 40.007812 240.082031 39.449219 C 240.082031 38.886719 240.179688 38.394531 240.382812 37.976562 C 240.589844 37.554688 240.878906 37.230469 241.246094 37.003906 C 241.617188 36.78125 242.046875 36.667969 242.539062 36.667969 C 243.085938 36.667969 243.535156 36.777344 243.886719 36.992188 C 244.234375 37.210938 244.496094 37.542969 244.667969 37.992188 L 244.292969 38.183594 C 244.171875 37.8125 243.960938 37.527344 243.664062 37.332031 C 243.363281 37.136719 242.988281 37.039062 242.539062 37.039062 C 242.132812 37.039062 241.777344 37.136719 241.476562 37.332031 C 241.171875 37.527344 240.933594 37.804688 240.761719 38.167969 C 240.597656 38.53125 240.511719 38.957031 240.511719 39.449219 C 240.511719 40.195312 240.691406 40.78125 241.050781 41.210938 C 241.402344 41.640625 241.898438 41.855469 242.53125 41.855469 C 242.921875 41.855469 243.25 41.777344 243.523438 41.621094 C 243.796875 41.464844 244 41.261719 244.132812 41.007812 C 244.261719 40.753906 244.328125 40.480469 244.328125 40.1875 L 244.328125 39.890625 L 242.496094 39.890625 Z M 254.386719 36.75 L 254.386719 42.144531 L 253.878906 42.144531 L 251.019531 37.910156 L 250.621094 37.191406 L 250.609375 37.191406 L 250.632812 37.871094 L 250.632812 42.144531 L 250.242188 42.144531 L 250.242188 36.75 L 250.757812 36.75 L 253.609375 40.976562 L 254.019531 41.703125 L 254.003906 41.023438 L 254.003906 36.75 Z M 254.386719 36.75 "/>
</g>
</svg>
